HIERARCHY
ROOT hip
{
	OFFSET 0.000000 0.000000 0.000000
	CHANNELS 6 Xposition Yposition Zposition Xrotation Zrotation Yrotation 
	JOINT abdomen
	{
		OFFSET 0.000000 3.422050 0.000000
		CHANNELS 3 Xrotation Zrotation Yrotation 
		JOINT chest
		{
			OFFSET 0.000000 8.486693 -0.684411
			CHANNELS 3 Xrotation Zrotation Yrotation 
			JOINT neck
			{
				OFFSET 0.000000 10.266162 -0.273764
				CHANNELS 3 Xrotation Zrotation Yrotation 
				JOINT head
				{
					OFFSET 0.000000 3.148285 0.000000
					CHANNELS 3 Xrotation Zrotation Yrotation 
					End Site
					{
						OFFSET 0.000000 3.148289 0.000000
					}
				}
			}
			JOINT lCollar
			{
				OFFSET 3.422053 6.707223 -0.821293
				CHANNELS 3 Yrotation Zrotation Xrotation 
				JOINT lShldr
				{
					OFFSET 3.285171 0.000000 0.000000
					CHANNELS 3 Zrotation Yrotation Xrotation 
					JOINT lForeArm
					{
						OFFSET 10.129278 0.000000 0.000000
						CHANNELS 3 Yrotation Zrotation Xrotation 
						JOINT lHand
						{
							OFFSET 8.486692 0.000000 0.000000
							CHANNELS 3 Zrotation Yrotation Xrotation 
							End Site
							{
								OFFSET 4.106464 0.000000 0.000000
							}
						}
					}
				}
			}
			JOINT rCollar
			{
				OFFSET -3.558935 6.707223 -0.821293
				CHANNELS 3 Yrotation Zrotation Xrotation 
				JOINT rShldr
				{
					OFFSET -3.148289 0.000000 0.000000
					CHANNELS 3 Zrotation Yrotation Xrotation 
					JOINT rForeArm
					{
						OFFSET -10.266159 0.000000 0.000000
						CHANNELS 3 Yrotation Zrotation Xrotation 
						JOINT rHand
						{
							OFFSET -8.349810 0.000000 0.000000
							CHANNELS 3 Zrotation Yrotation Xrotation 
							End Site
							{
								OFFSET -4.106464 0.000000 0.000000
							}
						}
					}
				}
			}
		}
	}
	JOINT lThigh
	{
		OFFSET 5.338403 -1.642589 1.368821
		CHANNELS 3 Xrotation Zrotation Yrotation 
		JOINT lShin
		{
			OFFSET -2.053232 -20.121670 0.000000
			CHANNELS 3 Xrotation Zrotation Yrotation 
			JOINT lFoot
			{
				OFFSET 0.000000 -19.300380 -1.231939
				CHANNELS 3 Xrotation Yrotation Zrotation 
				End Site
				{
					OFFSET 0.000000 -2.463878 4.653993
				}
			}
		}
	}
	JOINT rThigh
	{
		OFFSET -5.338403 -1.642589 1.368821
		CHANNELS 3 Xrotation Zrotation Yrotation 
		JOINT rShin
		{
			OFFSET 2.053232 -20.121670 0.000000
			CHANNELS 3 Xrotation Zrotation Yrotation 
			JOINT rFoot
			{
				OFFSET 0.000000 -19.300380 -1.231939
				CHANNELS 3 Xrotation Yrotation Zrotation 
				End Site
				{
					OFFSET 0.000000 -2.463878 4.653993
				}
			}
		}
	}
}
MOTION
Frames: 16
Frame Time: 0.099947
0.000000 43.528500 0.000000 0.000000 0.000000 0.000000 0.000000 0.000000 0.000000 0.000000 0.000000 0.000000 0.000000 0.000000 0.000000 0.000000 0.000000 0.000000 0.000000 0.000000 0.000000 0.000000 0.000000 0.000000 0.000000 0.000000 0.000000 0.000000 0.000000 0.000000 0.000000 0.000000 0.000000 0.000000 0.000000 0.000000 0.000000 0.000000 0.000000 0.000000 0.000000 0.000000 0.000000 0.000000 0.000000 0.000000 0.000000 0.000000 0.000000 0.000000 0.000000 0.000000 0.000000 0.000000 0.000000 0.000000 0.000000 0.000000 0.000000 0.000000 
-0.000000 14.287098 18.674240 0.000000 0.000000 -90.001877 24.582838 -0.226614 -0.265907 35.719997 0.086152 -0.672168 3.987569 -3.000406 18.999969 -37.004505 0.000000 0.000000 17.841600 22.334013 -20.506193 -28.978981 -41.282951 -2.907875 -120.910500 15.817469 -17.538788 31.238749 13.891471 -61.516979 -52.429962 18.532869 -36.098560 89.741684 16.477516 19.782915 112.648109 11.847208 -58.361755 18.153780 -18.177078 -50.938305 -55.632446 4.088500 -11.537579 145.149643 7.840578 5.231004 50.497120 -6.675577 3.629105 -55.906132 -3.722116 5.590240 145.830658 -7.742326 -5.250158 50.422485 0.941547 -1.805882 
-0.000000 14.287098 18.674240 0.000000 0.000000 -90.001884 24.582838 -0.226614 -0.265907 35.720009 0.308459 -0.672211 4.460204 -1.467036 16.788342 -37.337669 -0.403881 -0.901661 18.729614 21.756439 -20.464972 -28.980694 -41.281319 -2.906190 -120.921753 15.814674 -17.535126 30.751991 13.505972 -62.312473 -51.909988 18.431084 -36.125622 90.056572 16.488262 20.150925 113.255852 11.978429 -58.454823 17.144176 -18.636084 -50.159477 -55.632450 4.088499 -11.537580 145.149643 7.840578 5.231005 50.497120 -6.675577 3.629105 -55.906136 -3.722116 5.590240 145.830673 -7.742328 -5.250159 50.422489 0.941547 -1.805882 
-0.000000 14.287098 18.674240 0.000000 0.000000 -90.001877 24.582838 -0.226614 -0.265907 35.720005 0.530780 -0.672254 4.876308 0.096152 14.572161 -37.664883 -0.813498 -1.802227 19.615808 21.178703 -20.414236 -28.982405 -41.279675 -2.904503 -120.933144 15.811926 -17.531513 30.271070 13.113554 -63.104103 -51.390209 18.329041 -36.151711 90.371590 16.497068 20.519083 113.864388 12.108738 -58.549408 16.123653 -19.082668 -49.368805 -55.632446 4.088500 -11.537579 145.149643 7.840578 5.231004 50.497120 -6.675577 3.629105 -55.906132 -3.722116 5.590240 145.830658 -7.742325 -5.250158 50.422485 0.941547 -1.805882 
-0.000000 14.287098 18.674240 0.000000 0.000000 -90.001884 24.582838 -0.226614 -0.265907 35.720001 0.753113 -0.672296 5.234115 1.685449 12.350862 -37.986057 -1.228690 -2.701606 20.500240 20.601053 -20.354074 -28.984119 -41.278042 -2.902816 -120.944481 15.809155 -17.527880 29.796093 12.714370 -63.891781 -50.870609 18.226738 -36.176800 90.686729 16.503935 20.887367 114.473671 12.238103 -58.645466 15.092451 -19.516405 -48.566525 -55.632450 4.088500 -11.537579 145.149643 7.840578 5.231004 50.497120 -6.675577 3.629105 -55.906132 -3.722117 5.590240 145.830658 -7.742326 -5.250158 50.422489 0.941547 -1.805882 
-0.000000 14.287098 18.674240 0.000000 0.000000 -90.001877 24.582838 -0.226614 -0.265907 35.720005 0.975456 -0.672339 5.531968 3.296943 10.123727 -38.301025 -1.649290 -3.599706 21.382957 20.023720 -20.284569 -28.985834 -41.276405 -2.901130 -120.955795 15.806379 -17.524242 29.327156 12.308562 -64.675423 -50.351261 18.124205 -36.200920 91.001976 16.508858 21.255756 115.083687 12.366506 -58.743015 14.050831 -19.936892 -47.752911 -55.632446 4.088500 -11.537578 145.149643 7.840578 5.231004 50.497120 -6.675577 3.629105 -55.906128 -3.722117 5.590240 145.830658 -7.742326 -5.250158 50.422478 0.941547 -1.805882 
-0.000000 14.287098 18.674240 0.000000 0.000000 -90.001877 24.582838 -0.226614 -0.265907 35.720009 1.197808 -0.672382 5.768323 4.926535 7.889898 -38.609684 -2.075126 -4.496446 22.264017 19.446957 -20.205828 -28.987541 -41.274761 -2.899444 -120.967133 15.803605 -17.520607 28.864370 11.896290 -65.454956 -49.832146 18.021448 -36.224045 91.317291 16.511839 21.624218 115.694420 12.493927 -58.842052 12.999100 -20.343742 -46.928268 -55.632446 4.088500 -11.537579 145.149643 7.840578 5.231004 50.497120 -6.675577 3.629105 -55.906132 -3.722116 5.590240 145.830658 -7.742327 -5.250158 50.422485 0.941547 -1.805882 
-0.000000 14.287098 18.674240 0.000000 0.000000 -90.001877 24.582838 -0.226614 -0.265907 35.720005 1.420165 -0.672425 5.941756 6.569969 5.648408 -38.911942 -2.506024 -5.391745 23.143469 18.870989 -20.117929 -28.989256 -41.273129 -2.897759 -120.978455 15.800832 -17.516975 28.407803 11.477695 -66.230278 -49.313282 17.918478 -36.246185 91.632675 16.512877 21.992741 116.305786 12.620337 -58.942532 11.937585 -20.736570 -46.092930 -55.632446 4.088500 -11.537580 145.149643 7.840578 5.231004 50.497120 -6.675578 3.629106 -55.906132 -3.722117 5.590241 145.830658 -7.742326 -5.250158 50.422489 0.941547 -1.805882 
-0.000000 14.287098 18.674240 0.000000 0.000000 -90.001877 24.582840 -0.226614 -0.265907 35.720005 1.642528 -0.672468 6.050953 8.222860 3.398182 -39.207668 -2.941803 -6.285526 24.021345 18.296051 -20.020971 -28.990967 -41.271492 -2.896072 -120.989769 15.798054 -17.513340 27.957531 11.052938 -67.001312 -48.794689 17.815302 -36.267326 91.948059 16.511967 22.361286 116.917816 12.745714 -59.044464 10.866644 -21.115009 -45.247250 -55.632446 4.088500 -11.537579 145.149643 7.840578 5.231004 50.497120 -6.675577 3.629105 -55.906132 -3.722116 5.590240 145.830658 -7.742326 -5.250158 50.422485 0.941547 -1.805882 
-0.000000 14.287098 18.674240 0.000000 0.000000 -90.001877 24.582838 -0.226614 -0.265907 35.719997 1.864894 -0.672511 6.094713 9.880720 1.138061 -39.496769 -3.382281 -7.177719 24.897699 17.722389 -19.915054 -28.992682 -41.269852 -2.894386 -121.001106 15.795280 -17.509708 27.513660 10.622187 -67.768059 -48.276409 17.711946 -36.287479 92.263443 16.509111 22.729836 117.530411 12.870032 -59.147820 9.786660 -21.478704 -44.391628 -55.632446 4.088500 -11.537580 145.149643 7.840578 5.231004 50.497120 -6.675577 3.629105 -55.906136 -3.722117 5.590241 145.830673 -7.742327 -5.250158 50.422485 0.941547 -1.805882 
-0.000000 14.287098 18.674240 0.000000 0.000000 -90.001877 24.582838 -0.226614 -0.265907 35.720009 2.087263 -0.672554 6.071962 11.538994 -1.133174 -39.779152 -3.827271 -8.068256 25.772568 17.150230 -19.800274 -28.994392 -41.268215 -2.892702 -121.012413 15.792499 -17.506073 27.076244 10.185602 -68.530426 -47.758427 17.608410 -36.306633 92.578812 16.504314 23.098366 118.143616 12.993276 -59.252594 8.698054 -21.827322 -43.526470 -55.632446 4.088499 -11.537578 145.149643 7.840578 5.231004 50.497120 -6.675577 3.629105 -55.906128 -3.722116 5.590240 145.830658 -7.742325 -5.250158 50.422485 0.941547 -1.805882 
-0.000000 14.287098 18.674240 0.000000 0.000000 -90.001884 24.582838 -0.226614 -0.265907 35.719997 2.309630 -0.672596 5.981742 13.193080 -3.416782 -40.054714 -4.276583 -8.957079 26.645996 16.579811 -19.676748 -28.996103 -41.266571 -2.891015 -121.023743 15.789722 -17.502441 26.645348 9.743347 -69.288345 -47.240791 17.504721 -36.324806 92.894135 16.497572 23.466856 118.757317 13.115417 -59.358765 7.601271 -22.160545 -42.652252 -55.632446 4.088500 -11.537579 145.149643 7.840578 5.231004 50.497120 -6.675577 3.629105 -55.906132 -3.722116 5.590240 145.830658 -7.742326 -5.250158 50.422485 0.941547 -1.805882 
-0.000000 14.287098 18.674240 0.000000 0.000000 -90.001877 24.582838 -0.226614 -0.265907 35.720001 2.531997 -0.672639 5.823233 14.838378 -5.714037 -40.323383 -4.730024 -9.844122 27.518003 16.011354 -19.544563 -28.997814 -41.264938 -2.889331 -121.035065 15.786942 -17.498808 26.221031 9.295588 -70.041786 -46.723503 17.400883 -36.341980 93.209389 16.488884 23.835278 119.371544 13.236434 -59.466320 6.496783 -22.478069 -41.769432 -55.632446 4.088500 -11.537578 145.149643 7.840578 5.231004 50.497116 -6.675576 3.629105 -55.906128 -3.722117 5.590240 145.830658 -7.742326 -5.250158 50.422478 0.941547 -1.805882 
-0.000000 14.287098 18.674240 0.000000 0.000000 -90.001877 24.582840 -0.226614 -0.265907 35.719997 2.754359 -0.672682 5.595755 16.470299 -8.026201 -40.585075 -5.187401 -10.729341 28.388638 15.445099 -19.403843 -28.999529 -41.263306 -2.887645 -121.046379 15.784164 -17.495178 25.803356 8.842505 -70.790749 -46.206593 17.296909 -36.358170 93.524529 16.478256 24.203602 119.986221 13.356310 -59.575245 5.385091 -22.779613 -40.878517 -55.632446 4.088500 -11.537579 145.149643 7.840578 5.231004 50.497120 -6.675577 3.629105 -55.906132 -3.722116 5.590240 145.830658 -7.742326 -5.250158 50.422485 0.941547 -1.805882 
-0.000000 14.287098 18.674240 0.000000 0.000000 -90.001877 24.582838 -0.226614 -0.265907 35.720005 2.976718 -0.672725 5.298782 18.084316 -10.354497 -40.839699 -5.648513 -11.612675 29.257921 14.881265 -19.254696 -29.001240 -41.261658 -2.885961 -121.057701 15.781384 -17.491549 25.392355 8.384258 -71.535133 -45.690052 17.192810 -36.373348 93.839569 16.465685 24.571812 120.601349 13.475020 -59.685528 4.266726 -23.064920 -39.980034 -55.632446 4.088500 -11.537579 145.149643 7.840578 5.231004 50.497120 -6.675577 3.629105 -55.906136 -3.722116 5.590241 145.830658 -7.742327 -5.250158 50.422485 0.941547 -1.805882 
-0.000000 14.287098 18.674240 0.000000 0.000000 -90.001877 24.582838 -0.226614 -0.265907 35.719994 3.199069 -0.672769 4.931957 19.675980 -12.700071 -41.087193 -6.113163 -12.494085 30.125864 14.320069 -19.097223 -29.002954 -41.260025 -2.884274 -121.069008 15.778603 -17.487921 24.988070 7.921018 -72.274933 -45.173923 17.088604 -36.387547 94.154442 16.451176 24.939878 121.216873 13.592546 -59.797131 3.142237 -23.333755 -39.074551 -55.632446 4.088500 -11.537579 145.149643 7.840578 5.231004 50.497116 -6.675576 3.629105 -55.906132 -3.722116 5.590240 145.830658 -7.742326 -5.250158 50.422485 0.941547 -1.805882 
